# xmcd
#
# Track frame offsets:
# 150
# 15078
# 26555
# 38498
# 57693
# 67790
# 79776
# 91040
# 103563
# 114989
# 126604
# 138726
# 149568
# 165498
# 178432
# 190686
#
# Disc length: 2687 seconds
#
#
# Revision: 0
# Processed by: cddbd v1.5.1PL2 Copyright (c) Steve Scherf et al.
# Submitted via: FreeRIP 2.40 
#
DISCID=d50a7d10
DTITLE=Country Queens
DYEAR=1900
DGENRE=
TTITLE0=Harper Vally P.T.A
TTITLE1=Help me make it through the right
TTITLE2=Lonely days lonely nights
TTITLE3=Loving him was easier
TTITLE4=It's all over
TTITLE5=San antonio stroll
TTITLE6=Divorce
TTITLE7=Here comes my baby
TTITLE8=Colour my world
TTITLE9=Total women
TTITLE10=Send me the pillow
TTITLE11=Honky tonk merry go rounf
TTITLE12=Teddy bear song
TTITLE13=Sunshine
TTITLE14=Rose garden
TTITLE15=Street talk
EXTD=
EXTT0=
EXTT1=
EXTT2=
EXTT3=
EXTT4=
EXTT5=
EXTT6=
EXTT7=
EXTT8=
EXTT9=
EXTT10=
EXTT11=
EXTT12=
EXTT13=
EXTT14=
EXTT15=
PLAYORDER=
